<mxfile host="app.diagrams.net" agent="Mozilla/5.0 (Windows NT 10.0; Win64; x64) AppleWebKit/537.36 (KHTML, like Gecko) Chrome/129.0.0.0 Safari/537.36" version="24.7.10">
  <diagram name="Página-1" id="SM7x3JDyoCzkF_xw3BQJ">
    <mxGraphModel dx="1434" dy="780" grid="1" gridSize="10" guides="1" tooltips="1" connect="1" arrows="1" fold="1" page="1" pageScale="1" pageWidth="827" pageHeight="1169" math="0" shadow="0">
      <root>
        <mxCell id="0" />
        <mxCell id="1" parent="0" />
        <mxCell id="YbXDYI02zkRMgHCQa1R_-1" value="Projeto: Sistema de Turmas e Atividades&lt;div&gt;DCU (Diagrama de Casos de Uso)&lt;/div&gt;" style="text;html=1;align=center;verticalAlign=middle;whiteSpace=wrap;rounded=0;" vertex="1" parent="1">
          <mxGeometry x="292" y="30" width="244" height="50" as="geometry" />
        </mxCell>
        <mxCell id="YbXDYI02zkRMgHCQa1R_-17" style="edgeStyle=orthogonalEdgeStyle;rounded=0;orthogonalLoop=1;jettySize=auto;html=1;exitX=0.5;exitY=0.5;exitDx=0;exitDy=0;exitPerimeter=0;entryX=0;entryY=0.5;entryDx=0;entryDy=0;" edge="1" parent="1" source="YbXDYI02zkRMgHCQa1R_-2" target="YbXDYI02zkRMgHCQa1R_-3">
          <mxGeometry relative="1" as="geometry" />
        </mxCell>
        <mxCell id="YbXDYI02zkRMgHCQa1R_-2" value="Professor" style="shape=umlActor;verticalLabelPosition=bottom;verticalAlign=top;html=1;" vertex="1" parent="1">
          <mxGeometry x="110" y="285" width="30" height="60" as="geometry" />
        </mxCell>
        <mxCell id="YbXDYI02zkRMgHCQa1R_-3" value="Visualizar turmas" style="ellipse;whiteSpace=wrap;html=1;fillColor=#fff2cc;strokeColor=#d6b656;" vertex="1" parent="1">
          <mxGeometry x="230" y="280" width="140" height="70" as="geometry" />
        </mxCell>
        <mxCell id="YbXDYI02zkRMgHCQa1R_-4" value="Excluir Turma" style="ellipse;whiteSpace=wrap;html=1;fillColor=#fff2cc;strokeColor=#d6b656;" vertex="1" parent="1">
          <mxGeometry x="490" y="280" width="140" height="70" as="geometry" />
        </mxCell>
        <mxCell id="YbXDYI02zkRMgHCQa1R_-5" value="Cadastrar Turma" style="ellipse;whiteSpace=wrap;html=1;fillColor=#fff2cc;strokeColor=#d6b656;" vertex="1" parent="1">
          <mxGeometry x="440" y="390" width="140" height="70" as="geometry" />
        </mxCell>
        <mxCell id="YbXDYI02zkRMgHCQa1R_-6" value="Visualizar Atividades" style="ellipse;whiteSpace=wrap;html=1;fillColor=#fff2cc;strokeColor=#d6b656;" vertex="1" parent="1">
          <mxGeometry x="390" y="180" width="140" height="70" as="geometry" />
        </mxCell>
        <mxCell id="YbXDYI02zkRMgHCQa1R_-8" style="rounded=0;orthogonalLoop=1;jettySize=auto;html=1;exitX=0;exitY=1;exitDx=0;exitDy=0;entryX=1;entryY=0;entryDx=0;entryDy=0;dashed=1;endArrow=open;endFill=0;" edge="1" parent="1" source="YbXDYI02zkRMgHCQa1R_-6" target="YbXDYI02zkRMgHCQa1R_-3">
          <mxGeometry relative="1" as="geometry">
            <mxPoint x="560" y="305" as="sourcePoint" />
            <mxPoint x="420" y="305" as="targetPoint" />
          </mxGeometry>
        </mxCell>
        <mxCell id="YbXDYI02zkRMgHCQa1R_-21" value="&amp;lt;&amp;lt;extends&amp;gt;&amp;gt;" style="edgeLabel;html=1;align=center;verticalAlign=middle;resizable=0;points=[];" vertex="1" connectable="0" parent="YbXDYI02zkRMgHCQa1R_-8">
          <mxGeometry x="-0.2638" relative="1" as="geometry">
            <mxPoint as="offset" />
          </mxGeometry>
        </mxCell>
        <mxCell id="YbXDYI02zkRMgHCQa1R_-9" value="Cadastrar Atividades" style="ellipse;whiteSpace=wrap;html=1;fillColor=#fff2cc;strokeColor=#d6b656;" vertex="1" parent="1">
          <mxGeometry x="546" y="90" width="140" height="70" as="geometry" />
        </mxCell>
        <mxCell id="YbXDYI02zkRMgHCQa1R_-10" style="rounded=0;orthogonalLoop=1;jettySize=auto;html=1;exitX=0;exitY=0.5;exitDx=0;exitDy=0;entryX=1;entryY=0.5;entryDx=0;entryDy=0;dashed=1;endArrow=open;endFill=0;" edge="1" parent="1" source="YbXDYI02zkRMgHCQa1R_-4" target="YbXDYI02zkRMgHCQa1R_-3">
          <mxGeometry relative="1" as="geometry">
            <mxPoint x="437" y="240" as="sourcePoint" />
            <mxPoint x="359" y="300" as="targetPoint" />
          </mxGeometry>
        </mxCell>
        <mxCell id="YbXDYI02zkRMgHCQa1R_-20" value="&amp;lt;&amp;lt;extends&amp;gt;&amp;gt;" style="edgeLabel;html=1;align=center;verticalAlign=middle;resizable=0;points=[];" vertex="1" connectable="0" parent="YbXDYI02zkRMgHCQa1R_-10">
          <mxGeometry x="-0.0727" relative="1" as="geometry">
            <mxPoint as="offset" />
          </mxGeometry>
        </mxCell>
        <mxCell id="YbXDYI02zkRMgHCQa1R_-11" value="Sair do Sistema" style="ellipse;whiteSpace=wrap;html=1;fillColor=#fff2cc;strokeColor=#d6b656;" vertex="1" parent="1">
          <mxGeometry x="240" y="420" width="140" height="70" as="geometry" />
        </mxCell>
        <mxCell id="YbXDYI02zkRMgHCQa1R_-12" style="rounded=0;orthogonalLoop=1;jettySize=auto;html=1;entryX=0.5;entryY=1;entryDx=0;entryDy=0;dashed=1;endArrow=open;endFill=0;exitX=0.436;exitY=0.029;exitDx=0;exitDy=0;exitPerimeter=0;" edge="1" parent="1" source="YbXDYI02zkRMgHCQa1R_-11" target="YbXDYI02zkRMgHCQa1R_-3">
          <mxGeometry relative="1" as="geometry">
            <mxPoint x="300" y="440" as="sourcePoint" />
            <mxPoint x="359" y="300" as="targetPoint" />
          </mxGeometry>
        </mxCell>
        <mxCell id="YbXDYI02zkRMgHCQa1R_-19" value="&amp;lt;&amp;lt;extends&amp;gt;&amp;gt;" style="edgeLabel;html=1;align=center;verticalAlign=middle;resizable=0;points=[];" vertex="1" connectable="0" parent="YbXDYI02zkRMgHCQa1R_-12">
          <mxGeometry x="0.0889" y="-3" relative="1" as="geometry">
            <mxPoint as="offset" />
          </mxGeometry>
        </mxCell>
        <mxCell id="YbXDYI02zkRMgHCQa1R_-13" value="Autenticar usuário" style="ellipse;whiteSpace=wrap;html=1;fillColor=#fff2cc;strokeColor=#d6b656;" vertex="1" parent="1">
          <mxGeometry x="230" y="120" width="140" height="70" as="geometry" />
        </mxCell>
        <mxCell id="YbXDYI02zkRMgHCQa1R_-14" value="&amp;lt;&amp;lt;include&amp;gt;&amp;gt;" style="rounded=0;orthogonalLoop=1;jettySize=auto;html=1;entryX=0.5;entryY=1;entryDx=0;entryDy=0;dashed=1;endArrow=open;endFill=0;exitX=0.5;exitY=0;exitDx=0;exitDy=0;" edge="1" parent="1" source="YbXDYI02zkRMgHCQa1R_-3" target="YbXDYI02zkRMgHCQa1R_-13">
          <mxGeometry relative="1" as="geometry">
            <mxPoint x="310" y="450" as="sourcePoint" />
            <mxPoint x="310" y="360" as="targetPoint" />
          </mxGeometry>
        </mxCell>
        <mxCell id="YbXDYI02zkRMgHCQa1R_-15" style="rounded=0;orthogonalLoop=1;jettySize=auto;html=1;exitX=0;exitY=1;exitDx=0;exitDy=0;entryX=1;entryY=0;entryDx=0;entryDy=0;dashed=1;endArrow=open;endFill=0;" edge="1" parent="1" source="YbXDYI02zkRMgHCQa1R_-9" target="YbXDYI02zkRMgHCQa1R_-6">
          <mxGeometry relative="1" as="geometry">
            <mxPoint x="437" y="240" as="sourcePoint" />
            <mxPoint x="359" y="300" as="targetPoint" />
          </mxGeometry>
        </mxCell>
        <mxCell id="YbXDYI02zkRMgHCQa1R_-22" value="&amp;lt;&amp;lt;extends&amp;gt;&amp;gt;" style="edgeLabel;html=1;align=center;verticalAlign=middle;resizable=0;points=[];" vertex="1" connectable="0" parent="YbXDYI02zkRMgHCQa1R_-15">
          <mxGeometry x="-0.1212" y="1" relative="1" as="geometry">
            <mxPoint as="offset" />
          </mxGeometry>
        </mxCell>
        <mxCell id="YbXDYI02zkRMgHCQa1R_-16" value="&amp;lt;&amp;lt;extends&amp;gt;&amp;gt;" style="rounded=0;orthogonalLoop=1;jettySize=auto;html=1;exitX=0;exitY=0;exitDx=0;exitDy=0;entryX=1;entryY=1;entryDx=0;entryDy=0;dashed=1;endArrow=open;endFill=0;" edge="1" parent="1" source="YbXDYI02zkRMgHCQa1R_-5" target="YbXDYI02zkRMgHCQa1R_-3">
          <mxGeometry relative="1" as="geometry">
            <mxPoint x="490" y="325" as="sourcePoint" />
            <mxPoint x="380" y="325" as="targetPoint" />
          </mxGeometry>
        </mxCell>
      </root>
    </mxGraphModel>
  </diagram>
</mxfile>
